<svg xmlns="http://www.w3.org/2000/svg" viewBox="0 0 1400 960" width="1400" height="960" font-family="Helvetica, Arial, sans-serif">
  <rect x="0" y="0" width="1400" height="960" fill="#FFFFFF"/>

  <rect x="0" y="0" width="220" height="960" fill="#F7F6F2"/>
  <line x1="220" y1="0" x2="220" y2="960" stroke="#E4E2DB" stroke-width="1"/>
  <text x="28" y="48" font-size="16" font-weight="600" fill="#1F1E1C">Atlas</text>
  <text x="40" y="106" font-size="14" fill="#6B6A64">Home</text>
  <text x="40" y="152" font-size="14" fill="#6B6A64">Pitch deck</text>
  <text x="40" y="198" font-size="14" fill="#6B6A64">Market</text>
  <rect x="16" y="222" width="188" height="34" rx="8" fill="#EAF2FA"/>
  <text x="40" y="244" font-size="14" fill="#1B4C78">Investors</text>
  <text x="40" y="290" font-size="14" fill="#6B6A64">Pipeline</text>
  <text x="40" y="336" font-size="14" fill="#6B6A64">Resources</text>
  <line x1="16" y1="880" x2="204" y2="880" stroke="#E4E2DB" stroke-width="1"/>
  <text x="40" y="912" font-size="14" fill="#6B6A64">Raise settings</text>
  <text x="40" y="948" font-size="14" fill="#6B6A64">Account</text>

  <text x="252" y="40" font-size="22" font-weight="600" fill="#1F1E1C">Investors</text>

  <text x="252" y="164" font-size="14" font-weight="600" fill="#1F1E1C">Recommended</text>
  <line x1="252" y1="174" x2="380" y2="174" stroke="#1F1E1C" stroke-width="2"/>
  <text x="404" y="164" font-size="14" fill="#6B6A64">All investors</text>
  <line x1="252" y1="190" x2="1368" y2="190" stroke="#E4E2DB" stroke-width="1"/>

  <rect x="252" y="206" width="1116" height="46" rx="10" fill="#FFFFFF" stroke="#E4E2DB"/>
  <text x="272" y="234" font-size="13" fill="#6B6A64">Matching on seed &#183; sports tech &#183; Europe &#183; VC &#183; EUR 200k-1m cheque</text>
  <rect x="1188" y="215" width="150" height="28" rx="6" fill="none" stroke="#B4B2A9"/>
  <text x="1206" y="234" font-size="12" fill="#1F1E1C">Edit criteria</text>

  <!-- CARD 1 -->
  <rect x="252" y="266" width="1116" height="210" rx="12" fill="#FFFFFF" stroke="#E4E2DB"/>
  <rect x="272" y="284" width="36" height="36" rx="8" fill="#F2F1EC"/>
  <text x="286" y="307" font-size="13" font-weight="600" fill="#6B6A64">B</text>
  <text x="320" y="300" font-size="15" font-weight="600" fill="#1F1E1C">Baseline Ventures</text>
  <text x="320" y="316" font-size="12" fill="#9B9A93">Seed VC &#183; Europe</text>
  <rect x="272" y="330" width="86" height="20" rx="6" fill="#F2F1EC"/>
  <text x="280" y="344" font-size="11" fill="#6B6A64">Sports tech</text>
  <rect x="366" y="330" width="140" height="20" rx="6" fill="#F2F1EC"/>
  <text x="374" y="344" font-size="11" fill="#6B6A64">Consumer hardware</text>
  <rect x="514" y="330" width="90" height="20" rx="6" fill="#F2F1EC"/>
  <text x="522" y="344" font-size="11" fill="#6B6A64">Wearables</text>
  <text x="272" y="368" font-size="12" fill="#9B9A93">Portfolio includes Whoop, Statsbomb and Trainingpeaks.</text>
  <text x="272" y="388" font-size="13" fill="#6B6A64">Why Atlas recommends this: leads seed rounds in your cheque range and has backed two</text>
  <text x="272" y="404" font-size="13" fill="#6B6A64">comparable athlete-tracking companies in the past 18 months.</text>
  <rect x="272" y="418" width="130" height="30" rx="6" fill="#1F1E1C"/>
  <text x="290" y="437" font-size="12" fill="#FFFFFF">Add to pipeline</text>
  <rect x="412" y="418" width="106" height="30" rx="6" fill="none" stroke="#B4B2A9"/>
  <text x="430" y="437" font-size="12" fill="#1F1E1C">Not relevant</text>
  <text x="530" y="437" font-size="12" fill="#6B6A64">View profile</text>

  <!-- CARD 2 -->
  <rect x="252" y="490" width="1116" height="210" rx="12" fill="#FFFFFF" stroke="#E4E2DB"/>
  <rect x="272" y="508" width="36" height="36" rx="8" fill="#F2F1EC"/>
  <text x="286" y="531" font-size="13" font-weight="600" fill="#6B6A64">N</text>
  <text x="320" y="524" font-size="15" font-weight="600" fill="#1F1E1C">Northgate Capital</text>
  <text x="320" y="540" font-size="12" fill="#9B9A93">Seed and Series A VC &#183; Europe, UK</text>
  <rect x="272" y="554" width="86" height="20" rx="6" fill="#F2F1EC"/>
  <text x="280" y="568" font-size="11" fill="#6B6A64">Sports tech</text>
  <rect x="366" y="554" width="130" height="20" rx="6" fill="#F2F1EC"/>
  <text x="374" y="568" font-size="11" fill="#6B6A64">Data and analytics</text>
  <text x="272" y="592" font-size="12" fill="#9B9A93">Portfolio includes Zone7 and Kitman Labs.</text>
  <text x="272" y="612" font-size="13" fill="#6B6A64">Why Atlas recommends this: typically follows rather than leads, but has co-invested</text>
  <text x="272" y="628" font-size="13" fill="#6B6A64">alongside two funds already in your target list.</text>
  <rect x="272" y="642" width="130" height="30" rx="6" fill="#1F1E1C"/>
  <text x="290" y="661" font-size="12" fill="#FFFFFF">Add to pipeline</text>
  <rect x="412" y="642" width="106" height="30" rx="6" fill="none" stroke="#B4B2A9"/>
  <text x="430" y="661" font-size="12" fill="#1F1E1C">Not relevant</text>
  <text x="530" y="661" font-size="12" fill="#6B6A64">View profile</text>

  <!-- CARD 3 -->
  <rect x="252" y="714" width="1116" height="210" rx="12" fill="#FFFFFF" stroke="#E4E2DB"/>
  <rect x="272" y="732" width="36" height="36" rx="8" fill="#F2F1EC"/>
  <text x="286" y="755" font-size="13" font-weight="600" fill="#6B6A64">A</text>
  <text x="320" y="748" font-size="15" font-weight="600" fill="#1F1E1C">Ardent Sports Fund</text>
  <text x="320" y="764" font-size="12" fill="#9B9A93">Sector-specialist VC &#183; Pan-European</text>
  <rect x="272" y="778" width="86" height="20" rx="6" fill="#F2F1EC"/>
  <text x="280" y="792" font-size="11" fill="#6B6A64">Sports tech</text>
  <rect x="366" y="778" width="120" height="20" rx="6" fill="#F2F1EC"/>
  <text x="374" y="792" font-size="11" fill="#6B6A64">Fan engagement</text>
  <text x="272" y="816" font-size="12" fill="#9B9A93">Portfolio includes Sportlight Technology and Playermaker.</text>
  <text x="272" y="836" font-size="13" fill="#6B6A64">Why Atlas recommends this: a dedicated sports-tech fund with the closest thematic</text>
  <text x="272" y="852" font-size="13" fill="#6B6A64">overlap of any investor in the database.</text>
  <rect x="272" y="866" width="130" height="30" rx="6" fill="#1F1E1C"/>
  <text x="290" y="885" font-size="12" fill="#FFFFFF">Add to pipeline</text>
  <rect x="412" y="866" width="106" height="30" rx="6" fill="none" stroke="#B4B2A9"/>
  <text x="430" y="885" font-size="12" fill="#1F1E1C">Not relevant</text>
  <text x="530" y="885" font-size="12" fill="#6B6A64">View profile</text>
</svg>
