<svg xmlns="http://www.w3.org/2000/svg" viewBox="0 0 1400 1100" width="1400" height="1100" font-family="Helvetica, Arial, sans-serif">
  <rect x="0" y="0" width="1400" height="1100" fill="#FFFFFF"/>

  <rect x="0" y="0" width="220" height="1100" fill="#F7F6F2"/>
  <line x1="220" y1="0" x2="220" y2="1100" stroke="#E4E2DB" stroke-width="1"/>
  <text x="28" y="48" font-size="16" font-weight="600" fill="#1F1E1C">Atlas</text>
  <text x="40" y="106" font-size="14" fill="#6B6A64">Home</text>
  <text x="40" y="152" font-size="14" fill="#6B6A64">Pitch deck</text>
  <text x="40" y="198" font-size="14" fill="#6B6A64">Market</text>
  <text x="40" y="244" font-size="14" fill="#6B6A64">Investors</text>
  <rect x="16" y="268" width="188" height="34" rx="8" fill="#EAF2FA"/>
  <text x="40" y="290" font-size="14" fill="#1B4C78">Pipeline</text>
  <text x="40" y="336" font-size="14" fill="#6B6A64">Resources</text>

  <text x="252" y="40" font-size="18" fill="#6B6A64">&#8592;</text>

  <rect x="252" y="64" width="48" height="48" rx="10" fill="#F2F1EC"/>
  <text x="270" y="94" font-size="16" font-weight="600" fill="#6B6A64">N</text>
  <text x="316" y="84" font-size="20" font-weight="600" fill="#1F1E1C">Northgate Capital</text>
  <text x="316" y="104" font-size="13" fill="#9B9A93">Seed and Series A VC &#183; Europe, UK</text>
  <rect x="1258" y="70" width="110" height="30" rx="6" fill="#EAF2FA"/>
  <text x="1272" y="90" font-size="12" fill="#1B4C78">In conversation</text>

  <!-- PIPELINE RECORD -->
  <rect x="252" y="128" width="1116" height="340" rx="12" fill="#FFFFFF" stroke="#B4B2A9" stroke-width="1.5"/>
  <text x="272" y="156" font-size="15" font-weight="600" fill="#1F1E1C">Your pipeline record</text>

  <text x="272" y="182" font-size="11" fill="#6B6A64">Relevant contact</text>
  <text x="272" y="202" font-size="13" fill="#1F1E1C">Priya Shah</text>
  <text x="541" y="182" font-size="11" fill="#6B6A64">Potential investment</text>
  <text x="541" y="202" font-size="13" fill="#1F1E1C">EUR 350k</text>
  <text x="810" y="182" font-size="11" fill="#6B6A64">Last contact date</text>
  <text x="810" y="202" font-size="13" fill="#1F1E1C">17 Jul 2026</text>
  <text x="1079" y="182" font-size="11" fill="#6B6A64">Next step</text>
  <text x="1079" y="202" font-size="13" fill="#A32D2D">Send deck - overdue</text>

  <rect x="272" y="222" width="110" height="30" rx="6" fill="none" stroke="#B4B2A9"/>
  <text x="288" y="242" font-size="12" fill="#1F1E1C">Move stage</text>
  <rect x="394" y="222" width="122" height="30" rx="6" fill="none" stroke="#B4B2A9"/>
  <text x="408" y="242" font-size="12" fill="#1F1E1C">Set next step</text>
  <rect x="528" y="222" width="126" height="30" rx="6" fill="none" stroke="#B4B2A9"/>
  <text x="542" y="242" font-size="12" fill="#1F1E1C">Update amount</text>
  <text x="668" y="242" font-size="12" fill="#A32D2D">Archive investor</text>

  <line x1="272" y1="270" x2="1348" y2="270" stroke="#E4E2DB"/>
  <text x="272" y="294" font-size="13" font-weight="600" fill="#1F1E1C">Notes</text>
  <text x="272" y="314" font-size="12" fill="#6B6A64">Priya asked for an updated deck after our last call, wants to see the revised</text>
  <text x="272" y="330" font-size="12" fill="#6B6A64">traction slide before scheduling a partner meeting.</text>
  <text x="272" y="350" font-size="12" fill="#1B4C78">Add or edit note</text>

  <line x1="272" y1="368" x2="1348" y2="368" stroke="#E4E2DB"/>
  <text x="272" y="392" font-size="13" font-weight="600" fill="#1F1E1C">Activity history</text>
  <text x="272" y="412" font-size="12" fill="#6B6A64">17 Jul &#8212; Call with Priya Shah</text>
  <text x="272" y="430" font-size="12" fill="#6B6A64">9 Jul &#8212; Moved to in conversation</text>
  <text x="272" y="448" font-size="12" fill="#6B6A64">2 Jul &#8212; Initial email sent</text>

  <!-- ABOUT THIS INVESTOR -->
  <text x="252" y="500" font-size="15" font-weight="600" fill="#1F1E1C">About this investor</text>

  <rect x="252" y="516" width="270" height="56" rx="8" fill="#F2F1EC"/>
  <text x="268" y="538" font-size="11" fill="#6B6A64">Stages</text>
  <text x="268" y="558" font-size="13" font-weight="500" fill="#1F1E1C">Seed, Series A</text>
  <rect x="534" y="516" width="270" height="56" rx="8" fill="#F2F1EC"/>
  <text x="550" y="538" font-size="11" fill="#6B6A64">Typical cheque size</text>
  <text x="550" y="558" font-size="13" font-weight="500" fill="#9B9A93">Not confirmed</text>
  <rect x="816" y="516" width="270" height="56" rx="8" fill="#F2F1EC"/>
  <text x="832" y="538" font-size="11" fill="#6B6A64">Geography</text>
  <text x="832" y="558" font-size="13" font-weight="500" fill="#1F1E1C">Europe, UK</text>
  <rect x="1098" y="516" width="270" height="56" rx="8" fill="#F2F1EC"/>
  <text x="1114" y="538" font-size="11" fill="#6B6A64">Lead or follow</text>
  <text x="1114" y="558" font-size="13" font-weight="500" fill="#1F1E1C">Usually follows</text>

  <rect x="252" y="588" width="1116" height="84" rx="12" fill="#FFFFFF" stroke="#E4E2DB"/>
  <text x="272" y="612" font-size="15" font-weight="600" fill="#1F1E1C">Overview</text>
  <text x="272" y="634" font-size="13" fill="#6B6A64">Northgate Capital is a generalist European fund that co-invests alongside sector-</text>
  <text x="272" y="652" font-size="13" fill="#6B6A64">specialist leads. Active across seed and Series A, with a focus on data-driven products.</text>

  <rect x="252" y="688" width="1116" height="84" rx="12" fill="#FFFFFF" stroke="#E4E2DB"/>
  <text x="272" y="712" font-size="15" font-weight="600" fill="#1F1E1C">Investment thesis</text>
  <text x="272" y="734" font-size="13" fill="#6B6A64">Backs founders where a specialist lead has already validated the market,</text>
  <text x="272" y="752" font-size="13" fill="#6B6A64">contributing distribution and operating support rather than setting terms.</text>

  <rect x="252" y="788" width="1116" height="68" rx="12" fill="#FFFFFF" stroke="#E4E2DB"/>
  <text x="272" y="812" font-size="15" font-weight="600" fill="#1F1E1C">Relevant partners</text>
  <text x="272" y="834" font-size="13" font-weight="500" fill="#1F1E1C">Priya Shah</text>
  <text x="272" y="850" font-size="12" fill="#9B9A93">Partner</text>

  <rect x="252" y="872" width="1116" height="84" rx="12" fill="#FFFFFF" stroke="#E4E2DB"/>
  <text x="272" y="896" font-size="15" font-weight="600" fill="#1F1E1C">Portfolio</text>
  <text x="272" y="918" font-size="13" fill="#6B6A64">Includes: Zone7, Kitman Labs, Formsense.</text>
  <text x="272" y="936" font-size="12" fill="#9B9A93">Relevant sports-tech investments: Zone7 (injury prediction), Kitman Labs (athlete data platform).</text>

  <rect x="252" y="972" width="1116" height="84" rx="12" fill="#FFFFFF" stroke="#E4E2DB"/>
  <text x="272" y="996" font-size="15" font-weight="600" fill="#1F1E1C">Recent investment activity</text>
  <text x="272" y="1018" font-size="13" fill="#6B6A64">Co-invested in a EUR 9m Series A for Kitman Labs in March 2026.</text>
</svg>
