<svg xmlns="http://www.w3.org/2000/svg" viewBox="0 0 1400 1120" width="1400" height="1120" font-family="Helvetica, Arial, sans-serif">
  <rect x="0" y="0" width="1400" height="1120" fill="#FFFFFF"/>

  <rect x="0" y="0" width="220" height="1120" fill="#F7F6F2"/>
  <line x1="220" y1="0" x2="220" y2="1120" stroke="#E4E2DB" stroke-width="1"/>
  <text x="28" y="48" font-size="16" font-weight="600" fill="#1F1E1C">Atlas</text>
  <text x="40" y="106" font-size="14" fill="#6B6A64">Home</text>
  <text x="40" y="152" font-size="14" fill="#6B6A64">Pitch deck</text>
  <text x="40" y="198" font-size="14" fill="#6B6A64">Market</text>
  <text x="40" y="244" font-size="14" fill="#6B6A64">Investors</text>
  <text x="40" y="290" font-size="14" fill="#6B6A64">Pipeline</text>
  <text x="40" y="336" font-size="14" fill="#6B6A64">Resources</text>
  <rect x="16" y="1044" width="188" height="34" rx="8" fill="#EAF2FA"/>
  <text x="40" y="1066" font-size="14" fill="#1B4C78">Raise settings</text>
  <text x="40" y="1096" font-size="14" fill="#6B6A64">Account</text>

  <text x="252" y="40" font-size="22" font-weight="600" fill="#1F1E1C">Raise settings</text>
  <text x="252" y="60" font-size="13" fill="#9B9A93">Edit the underlying information Atlas uses to run your raise.</text>

  <!-- COMPANY PROFILE -->
  <rect x="252" y="86" width="1116" height="300" rx="12" fill="#FFFFFF" stroke="#E4E2DB"/>
  <text x="272" y="112" font-size="15" font-weight="600" fill="#1F1E1C">Company profile</text>

  <text x="272" y="140" font-size="12" fill="#6B6A64">Company name</text>
  <rect x="272" y="146" width="531" height="34" rx="6" fill="none" stroke="#B4B2A9"/>
  <text x="284" y="167" font-size="13" fill="#1F1E1C">Formsense</text>
  <text x="817" y="140" font-size="12" fill="#6B6A64">Website</text>
  <rect x="817" y="146" width="531" height="34" rx="6" fill="none" stroke="#B4B2A9"/>
  <text x="829" y="167" font-size="13" fill="#1F1E1C">formsense.io</text>

  <text x="272" y="196" font-size="12" fill="#6B6A64">Location</text>
  <rect x="272" y="202" width="531" height="34" rx="6" fill="none" stroke="#B4B2A9"/>
  <text x="284" y="223" font-size="13" fill="#1F1E1C">Berlin, Germany</text>
  <text x="817" y="196" font-size="12" fill="#6B6A64">Current stage</text>
  <rect x="817" y="202" width="531" height="34" rx="6" fill="none" stroke="#B4B2A9"/>
  <text x="829" y="223" font-size="13" fill="#1F1E1C">Seed</text>

  <text x="272" y="252" font-size="12" fill="#6B6A64">Company description</text>
  <rect x="272" y="258" width="1076" height="50" rx="6" fill="none" stroke="#B4B2A9"/>
  <text x="284" y="278" font-size="13" fill="#1F1E1C">Connected sports performance technology for amateur athletes, combining</text>
  <text x="284" y="296" font-size="13" fill="#1F1E1C">wearable tracking with coaching guidance.</text>

  <text x="272" y="328" font-size="12" fill="#6B6A64">Category</text>
  <rect x="272" y="334" width="531" height="34" rx="6" fill="none" stroke="#B4B2A9"/>
  <text x="284" y="355" font-size="13" fill="#1F1E1C">Athletes -&gt; Activity software -&gt; Tracking and analytics</text>
  <text x="817" y="328" font-size="12" fill="#6B6A64">Revenue status</text>
  <rect x="817" y="334" width="531" height="34" rx="6" fill="none" stroke="#B4B2A9"/>
  <text x="829" y="355" font-size="13" fill="#1F1E1C">Pre-revenue, in pilot with 3 clubs</text>

  <!-- RAISE DETAILS -->
  <rect x="252" y="402" width="1116" height="240" rx="12" fill="#FFFFFF" stroke="#E4E2DB"/>
  <text x="272" y="428" font-size="15" font-weight="600" fill="#1F1E1C">Raise details</text>

  <text x="272" y="456" font-size="12" fill="#6B6A64">Round type</text>
  <rect x="272" y="462" width="349" height="34" rx="6" fill="none" stroke="#B4B2A9"/>
  <text x="284" y="483" font-size="13" fill="#1F1E1C">Seed</text>
  <text x="635" y="456" font-size="12" fill="#6B6A64">Target raise</text>
  <rect x="635" y="462" width="349" height="34" rx="6" fill="none" stroke="#B4B2A9"/>
  <text x="647" y="483" font-size="13" fill="#1F1E1C">EUR 1.5m</text>
  <text x="998" y="456" font-size="12" fill="#6B6A64">Target close date</text>
  <rect x="998" y="462" width="350" height="34" rx="6" fill="none" stroke="#B4B2A9"/>
  <text x="1010" y="483" font-size="13" fill="#1F1E1C">30 Nov 2026</text>

  <text x="272" y="512" font-size="12" fill="#6B6A64">Amount committed</text>
  <rect x="272" y="518" width="349" height="34" rx="6" fill="#F2F1EC"/>
  <text x="284" y="539" font-size="13" fill="#6B6A64">EUR 250k</text>
  <text x="272" y="566" font-size="11" fill="#9B9A93">Calculated from committed investors in your pipeline</text>
  <text x="635" y="512" font-size="12" fill="#6B6A64">Valuation</text>
  <rect x="635" y="518" width="349" height="34" rx="6" fill="none" stroke="#B4B2A9"/>
  <text x="647" y="539" font-size="13" fill="#9B9A93">Not provided</text>
  <text x="998" y="512" font-size="12" fill="#6B6A64">Previous capital raised</text>
  <rect x="998" y="518" width="350" height="34" rx="6" fill="none" stroke="#B4B2A9"/>
  <text x="1010" y="539" font-size="13" fill="#1F1E1C">EUR 400k pre-seed</text>

  <text x="272" y="592" font-size="12" fill="#6B6A64">Fundraising structure</text>
  <rect x="272" y="598" width="270" height="34" rx="6" fill="none" stroke="#B4B2A9"/>
  <text x="284" y="619" font-size="13" fill="#1F1E1C">Priced equity round</text>

  <!-- INVESTOR CRITERIA -->
  <rect x="252" y="658" width="1116" height="230" rx="12" fill="#FFFFFF" stroke="#E4E2DB"/>
  <text x="272" y="684" font-size="15" font-weight="600" fill="#1F1E1C">Investor criteria</text>

  <text x="272" y="712" font-size="12" fill="#6B6A64">Investor types</text>
  <rect x="272" y="718" width="531" height="34" rx="6" fill="none" stroke="#B4B2A9"/>
  <text x="284" y="739" font-size="13" fill="#1F1E1C">VC, angel syndicate</text>
  <text x="817" y="712" font-size="12" fill="#6B6A64">Geographies</text>
  <rect x="817" y="718" width="531" height="34" rx="6" fill="none" stroke="#B4B2A9"/>
  <text x="829" y="739" font-size="13" fill="#1F1E1C">Europe, UK</text>

  <text x="272" y="768" font-size="12" fill="#6B6A64">Cheque-size range</text>
  <rect x="272" y="774" width="531" height="34" rx="6" fill="none" stroke="#B4B2A9"/>
  <text x="284" y="795" font-size="13" fill="#1F1E1C">EUR 200k - 1m</text>
  <text x="817" y="768" font-size="12" fill="#6B6A64">Lead or follower preference</text>
  <rect x="817" y="774" width="531" height="34" rx="6" fill="none" stroke="#B4B2A9"/>
  <text x="829" y="795" font-size="13" fill="#1F1E1C">Prefer lead</text>

  <text x="272" y="824" font-size="12" fill="#6B6A64">Strategic investor preference</text>
  <rect x="272" y="830" width="531" height="34" rx="6" fill="none" stroke="#B4B2A9"/>
  <text x="284" y="851" font-size="13" fill="#1F1E1C">Open to strategics</text>
  <text x="817" y="824" font-size="12" fill="#6B6A64">Excluded investors</text>
  <rect x="817" y="830" width="531" height="34" rx="6" fill="none" stroke="#B4B2A9"/>
  <text x="829" y="851" font-size="13" fill="#9B9A93">None specified</text>

  <!-- RAISE CONTROLS -->
  <rect x="252" y="914" width="1116" height="120" rx="12" fill="#FFFFFF" stroke="#E4E2DB"/>
  <text x="272" y="940" font-size="15" font-weight="600" fill="#1F1E1C">Raise controls</text>
  <text x="272" y="960" font-size="12" fill="#9B9A93">Current stage: Preparing &#183; automatically determined from your pipeline activity, not editable here.</text>
  <rect x="272" y="976" width="170" height="34" rx="6" fill="none" stroke="#B4B2A9"/>
  <text x="286" y="998" font-size="13" fill="#1F1E1C">Mark round as funded</text>
  <rect x="454" y="976" width="140" height="34" rx="6" fill="none" stroke="#B4B2A9"/>
  <text x="468" y="998" font-size="13" fill="#1F1E1C">Pause this raise</text>
  <rect x="606" y="976" width="140" height="34" rx="6" fill="none" stroke="#E24B4A"/>
  <text x="620" y="998" font-size="13" fill="#A32D2D">Close this raise</text>
</svg>
